<svg t="1637204988216" class="icon" viewBox="0 0 1024 1024" version="1.1" xmlns="http://www.w3.org/2000/svg" p-id="4357" width="128" height="128"><path d="M462.718554 543.9983H247.999225A247.999225 247.999225 0 0 0 0 790.717529 233.279271 233.279271 0 0 0 233.279271 1023.9968 245.439233 245.439233 0 0 0 479.9985 778.557567v-219.839313a15.99995 15.99995 0 0 0-17.279946-14.719954zM558.718254 479.9985h205.439358A259.839188 259.839188 0 0 0 1023.9968 218.879316 218.879316 218.879316 0 0 0 805.117484 0 262.39918 262.39918 0 0 0 543.9983 262.39918v199.999375a15.99995 15.99995 0 0 0 14.719954 17.599945zM797.437508 543.9983h-238.719254a15.99995 15.99995 0 0 0-15.99995 15.99995v238.719254A226.559292 226.559292 0 0 0 767.9976 1023.9968a255.9992 255.9992 0 0 0 255.9992-255.9992 226.559292 226.559292 0 0 0-226.559292-223.9993zM255.9992 0a255.9992 255.9992 0 0 0-255.9992 255.9992 223.9993 223.9993 0 0 0 223.9993 223.9993h239.039253a15.99995 15.99995 0 0 0 15.99995-15.99995V223.9993A223.9993 223.9993 0 0 0 255.9992 0z" fill="" p-id="4358"></path></svg>