<svg t="1637204370439" class="icon" viewBox="0 0 1036 1024" version="1.1" xmlns="http://www.w3.org/2000/svg" p-id="3337" width="128" height="128"><path d="M984.177778 432.355556l-45.511111 0c-22.755556 0-45.511111-17.066667-51.2-39.822222l-28.444444-68.266667C847.644444 312.888889 853.333333 284.444444 870.4 267.377778l34.133333-34.133333c17.066667-17.066667 17.066667-39.822222 0-56.888889l-56.888889-56.888889c-17.066667-17.066667-39.822222-17.066667-56.888889 0l-34.133333 34.133333C739.555556 170.666667 711.111111 176.355556 694.044444 164.977778L625.777778 136.533333c-22.755556-5.688889-39.822222-28.444444-39.822222-51.2L585.955556 39.822222c0-22.755556-17.066667-39.822222-39.822222-39.822222L472.177778 0C449.422222 0 432.355556 17.066667 432.355556 39.822222l0 45.511111c0 22.755556-17.066667 45.511111-39.822222 51.2L329.955556 164.977778C312.888889 176.355556 284.444444 170.666667 267.377778 153.6L233.244444 119.466667c-17.066667-17.066667-39.822222-17.066667-56.888889 0l-56.888889 56.888889c-17.066667 17.066667-17.066667 39.822222 0 56.888889l34.133333 34.133333C170.666667 284.444444 176.355556 312.888889 164.977778 329.955556L136.533333 398.222222C130.844444 415.288889 108.088889 432.355556 85.333333 432.355556l-45.511111 0C17.066667 432.355556 0 449.422222 0 472.177778l0 79.644444c0 22.755556 17.066667 39.822222 39.822222 39.822222l45.511111 0c22.755556 0 45.511111 17.066667 51.2 39.822222l28.444444 68.266667C176.355556 711.111111 170.666667 739.555556 153.6 756.622222l-34.133333 34.133333c-17.066667 17.066667-17.066667 39.822222 0 56.888889l56.888889 56.888889c17.066667 17.066667 39.822222 17.066667 56.888889 0l34.133333-34.133333C284.444444 853.333333 312.888889 847.644444 329.955556 859.022222L398.222222 887.466667c22.755556 5.688889 39.822222 28.444444 39.822222 51.2l0 45.511111c0 22.755556 17.066667 39.822222 39.822222 39.822222l79.644444 0c22.755556 0 39.822222-17.066667 39.822222-39.822222l0-45.511111c0-22.755556 17.066667-45.511111 39.822222-51.2l68.266667-28.444444c17.066667-11.377778 45.511111-5.688889 62.577778 11.377778l34.133333 34.133333c17.066667 17.066667 39.822222 17.066667 56.888889 0l56.888889-56.888889c17.066667-17.066667 17.066667-39.822222 0-56.888889l-34.133333-34.133333c-17.066667-17.066667-17.066667-45.511111-11.377778-62.577778l28.444444-68.266667c5.688889-22.755556 28.444444-39.822222 51.2-39.822222l45.511111 0c22.755556 0 39.822222-17.066667 39.822222-39.822222L1035.377778 472.177778C1024 449.422222 1006.933333 432.355556 984.177778 432.355556L984.177778 432.355556zM711.111111 512c0 108.088889-91.022222 199.111111-199.111111 199.111111-108.088889 0-199.111111-85.333333-199.111111-199.111111 0-108.088889 85.333333-199.111111 199.111111-199.111111C620.088889 312.888889 711.111111 403.911111 711.111111 512L711.111111 512zM711.111111 512" p-id="3338"></path></svg>